HIERARCHY
ROOT Hips
{
	OFFSET 0.00 0.00 0.00
	CHANNELS 6 Xposition Yposition Zposition Yrotation Xrotation Zrotation
	JOINT LHipJoint
	{
		OFFSET	0.0000	0.0000	0.0000
		CHANNELS 3 Yrotation Xrotation Zrotation
		JOINT LeftUpLeg
		{
			OFFSET	1.0138	-0.0809	-0.0827
			CHANNELS 3 Yrotation Xrotation Zrotation
			JOINT LeftLeg
			{
				OFFSET	0.4110	-3.9095	0.3245
				CHANNELS 3 Yrotation Xrotation Zrotation
				JOINT LeftFoot
				{
					OFFSET	0.3810	-4.0555	-0.1470
					CHANNELS 3 Yrotation Xrotation Zrotation
					JOINT LeftToeBase
					{
						OFFSET	0.1396	-0.4462	1.3079
						CHANNELS 3 Yrotation Xrotation Zrotation
						End Site
						{
							OFFSET 0.0161 -0.0248 0.1809
						}
					}
				}
			}
		}
	}
	JOINT LowerBack
	{
		OFFSET	0.0000	0.7977	-0.3873
		CHANNELS 3 Yrotation Xrotation Zrotation
		JOINT Spine
		{
			OFFSET	0.0000	1.4131	0.1715
			CHANNELS 3 Yrotation Xrotation Zrotation
			JOINT Spine1
			{
				OFFSET	0.0000	1.4392	-0.1032
				CHANNELS 3 Yrotation Xrotation Zrotation
				JOINT LeftShoulder
				{
					OFFSET	0.2274	1.0382	0.4032
					CHANNELS 3 Yrotation Xrotation Zrotation
					JOINT LeftArm
					{
						OFFSET	1.4730	-0.2267	-0.0231
						CHANNELS 3 Yrotation Xrotation Zrotation
						JOINT LeftForeArm
						{
							OFFSET	1.6131	-1.8059	0.0081
							CHANNELS 3 Yrotation Xrotation Zrotation
							JOINT LeftHand
							{
								OFFSET	1.2197	-1.2423	1.6317
								CHANNELS 3 Yrotation Xrotation Zrotation
								JOINT LThumb
								{
									OFFSET	0.0109	-0.0753	0.4387
									CHANNELS 3 Yrotation Xrotation Zrotation
									End Site
									{
										OFFSET -0.2090 -0.0868 0.2097
									}
								}
								JOINT LeftFingerBase
								{
									OFFSET	0.1071	-0.1567	0.2607
									CHANNELS 3 Yrotation Xrotation Zrotation
									JOINT LeftHandFinger1
									{
										OFFSET	0.1706	-0.2492	0.6830
										CHANNELS 3 Yrotation Xrotation Zrotation
										End Site
										{
											OFFSET 0.0335 -0.1507 0.2071
										}
									}
								}
							}
						}
					}
				}
				JOINT Neck
				{
					OFFSET	0.0000	1.7498	0.2381
					CHANNELS 3 Yrotation Xrotation Zrotation
					JOINT Neck1
					{
						OFFSET	0.0000	0.5043	0.1959
						CHANNELS 3 Yrotation Xrotation Zrotation
						JOINT Head
						{
							OFFSET	0.0000	0.5044	0.1959
							CHANNELS 3 Yrotation Xrotation Zrotation
							End Site
							{
								OFFSET 0.0000 1.4798 -0.0693
							}
						}
					}
				}
				JOINT RightShoulder
				{
					OFFSET	-0.2274	1.0382	0.4032
					CHANNELS 3 Yrotation Xrotation Zrotation
					JOINT RightArm
					{
						OFFSET	-1.4730	-0.2267	-0.0231
						CHANNELS 3 Yrotation Xrotation Zrotation
						JOINT RightForeArm
						{
							OFFSET	-1.6131	-1.8059	0.0081
							CHANNELS 3 Yrotation Xrotation Zrotation
							JOINT RightHand
							{
								OFFSET	-1.2197	-1.2423	1.6317
								CHANNELS 3 Yrotation Xrotation Zrotation
								JOINT RThumb
								{
									OFFSET	-0.0109	-0.0753	0.4387
									CHANNELS 3 Yrotation Xrotation Zrotation
									End Site
									{
										OFFSET 0.2090 -0.0868 0.2097
									}
								}
								JOINT RightFingerBase
								{
									OFFSET	-0.1071	-0.1567	0.2607
									CHANNELS 3 Yrotation Xrotation Zrotation
									JOINT RightHandFinger1
									{
										OFFSET	-0.1706	-0.2492	0.6830
										CHANNELS 3 Yrotation Xrotation Zrotation
										End Site
										{
											OFFSET -0.0335 -0.1507 0.2071
										}
									}
								}
							}
						}
					}
				}
			}
		}
	}
	JOINT RHipJoint
	{
		OFFSET	0.0000	0.0000	0.0000
		CHANNELS 3 Yrotation Xrotation Zrotation
		JOINT RightUpLeg
		{
			OFFSET	-1.0138	-0.0809	-0.0827
			CHANNELS 3 Yrotation Xrotation Zrotation
			JOINT RightLeg
			{
				OFFSET	-0.4110	-3.9095	0.3245
				CHANNELS 3 Yrotation Xrotation Zrotation
				JOINT RightFoot
				{
					OFFSET	-0.3810	-4.0555	-0.1470
					CHANNELS 3 Yrotation Xrotation Zrotation
					JOINT RightToeBase
					{
						OFFSET	-0.1396	-0.4462	1.3079
						CHANNELS 3 Yrotation Xrotation Zrotation
						End Site
						{
							OFFSET -0.0161 -0.0248 0.1809
						}
					}
				}
			}
		}
	}
}
MOTION
Frames: 5
Frame Time: 0.0333333
0.0386 8.6833 0.1004 6.5236 -3.7378 -3.1837 0.0000 -0.0000 0.0000 15.4928 -7.5878 1.6707 3.2804 12.7719 4.7513 0.5394 -2.4656 -1.6460 0.0000 -4.9285 -0.0000 0.0000 -0.0000 0.0000 0.7255 1.8700 2.0109 1.5140 3.7201 3.6997 -17.4437 0.9963 -3.2129 -20.3142 0.6119 -31.7232 29.9308 30.2124 5.9892 23.2305 -3.4875 -25.4881 25.5061 -2.3861 12.1143 0.8522 13.7957 -3.6817 -6.4426 -3.9189 -2.4825 -0.0794 5.6263 0.4469 -0.1004 5.6216 0.4821 1.6280 -13.1676 -0.9079 15.3469 1.1603 5.6049 29.4912 7.2724 25.0816 -25.4576 26.7561 -3.9255 -16.5352 1.6762 15.2302 -24.4738 -3.2534 -10.2851 -1.2287 13.1406 3.2549 6.6723 -4.1923 2.5304 0.0000 -0.0000 0.0000 -10.2306 5.0073 8.7433 -10.2895 4.8000 -4.2084 -1.1474 -6.6791 -1.7295 -0.0000 -7.2933 0.0000 
0.0885 8.6545 0.0640 4.2964 -3.5434 -3.1687 0.0000 -0.0000 0.0000 15.1585 -8.6700 1.4991 5.6110 14.9317 5.4071 0.9733 -3.8263 -1.7464 0.0000 -4.9285 -0.0000 0.0000 -0.0000 0.0000 0.5481 1.9731 1.9159 1.1562 3.9306 3.5879 -17.5093 1.0532 -2.9842 -20.4832 1.2599 -31.4841 29.6747 30.0244 5.8647 23.5352 -3.4919 -25.7235 25.5061 -2.3861 12.1143 0.8212 13.7819 -3.7195 -6.4426 -3.9189 -2.4825 -0.7234 5.5077 0.7186 -0.7278 5.5191 0.7797 0.1764 -13.4384 -0.2494 15.4456 1.1323 5.7409 27.2871 6.1213 23.9991 -24.7020 26.1362 -3.6015 -16.2268 -0.3148 13.0462 -24.4738 -3.2534 -10.2851 -1.1342 13.2022 3.3350 6.6837 -4.1806 2.5394 0.0000 -0.0000 0.0000 -10.3105 2.4495 8.3025 -8.5262 8.5765 -4.3733 -1.0866 -7.8363 -1.5166 -0.0000 -7.2933 0.0000 
0.2109 8.6019 -0.0086 2.1934 -3.2964 -3.1166 0.0000 -0.0000 0.0000 13.9670 -10.5895 0.6308 8.2189 18.5270 6.6054 2.2110 -5.8750 -1.6596 0.0000 -4.9285 -0.0000 0.0000 -0.0000 0.0000 0.4156 2.0819 1.6951 0.8834 4.1513 3.3425 -17.5345 1.1124 -2.7619 -20.2772 2.0656 -31.1101 29.2783 29.7309 5.6734 24.0737 -3.3891 -25.8923 25.5061 -2.3861 12.1143 0.7676 13.8340 -3.7758 -6.4429 -3.9185 -2.4828 -1.9860 5.6835 1.1585 -1.9471 5.7382 1.2849 -1.8681 -13.4974 0.7317 15.5612 1.1016 5.8896 23.1100 4.5905 22.8862 -23.8671 25.4393 -3.2522 -13.8254 -1.7422 8.9571 -24.4738 -3.2534 -10.2851 -1.1074 13.2543 3.3569 6.6742 -4.1903 2.5320 0.0000 -0.0000 0.0000 -3.6840 -2.1903 5.7670 -11.8815 15.3579 -2.6813 -4.5104 -9.1354 -0.5690 0.0000 -7.5649 0.0000 
0.3777 8.5622 -0.0765 0.1567 -3.0224 -3.0454 0.0000 -0.0000 0.0000 12.2020 -11.8735 -0.6654 10.8887 20.9136 8.0831 4.1217 -7.4772 -1.5946 0.0000 -4.9285 -0.0000 0.0000 -0.0000 0.0000 0.2755 2.1949 1.4877 0.5978 4.3804 3.1958 -17.4972 1.1567 -2.5870 -19.7449 2.9620 -30.6134 28.8029 29.3752 5.4463 24.8726 -3.1109 -26.0314 25.5061 -2.3861 12.1143 0.6985 13.9092 -3.8407 -6.3922 -3.9736 -2.4419 -3.6008 6.1483 1.6274 -3.5012 6.2675 1.8404 -4.2512 -13.3655 1.9157 15.6184 1.0830 5.9790 17.5722 2.9060 21.9770 -22.8326 24.5584 -2.8325 -9.9410 -2.4508 3.4795 -24.4738 -3.2534 -10.2851 -0.9749 13.4416 3.4720 6.6703 -4.1944 2.5288 0.0000 -0.0000 0.0000 -0.3823 -5.5580 3.7581 -13.0255 22.0261 -2.5362 -11.0852 -9.8488 0.7701 -0.0000 -7.0783 0.0000 
0.5588 8.5620 -0.1399 -1.8645 -2.7461 -3.1355 0.0000 -0.0000 0.0000 11.3363 -12.2108 -1.9905 11.9073 21.3015 8.7858 6.5206 -8.0951 -1.1524 0.0000 -4.9285 -0.0000 0.0000 -0.0000 0.0000 0.0997 2.2959 1.5541 0.2504 4.5879 3.2947 -17.4160 1.1805 -2.4928 -19.1285 3.9225 -30.0117 28.3010 28.9953 5.2095 25.9064 -2.6270 -26.1116 25.5061 -2.3861 12.1143 0.6351 13.9707 -3.8967 -6.4398 -3.9219 -2.4803 -5.3405 6.7644 2.0195 -5.1729 6.9611 2.3221 -6.7576 -12.7547 3.0507 15.5629 1.0915 5.9418 11.6446 1.5503 21.4742 -21.4743 23.3726 -2.3042 -5.7415 -2.5643 -2.3101 -24.4738 -3.2534 -10.2851 -0.5902 13.9961 3.8025 6.6935 -4.1704 2.5473 0.0000 -0.0000 0.0000 -0.7405 -6.1254 2.2408 -13.3898 23.5061 -1.5033 -16.0948 -9.5534 0.0712 0.0000 -7.3330 0.0000 
